<svg xmlns="http://www.w3.org/2000/svg" width="12" height="11" viewBox="0 0 12 11">
  <defs>
    <style>
      .cls-1 {
        fill: #4d4d4d;
        fill-rule: evenodd;
      }
    </style>
  </defs>
  <path id="Seta" class="cls-1" d="M35.6,33.9H46.4a0.6,0.6,0,1,1,0,1.207H35.6A0.6,0.6,0,1,1,35.6,33.9Zm4.618,5.916-5.03-4.849a0.608,0.608,0,0,1,0-.882,0.664,0.664,0,0,1,.914,0l5.03,4.849a0.608,0.608,0,0,1,0,.882A0.663,0.663,0,0,1,40.222,39.813Zm0-10.629-5.03,4.85a0.608,0.608,0,0,0,0,.882,0.663,0.663,0,0,0,.914,0l5.03-4.85a0.608,0.608,0,0,0,0-.882A0.664,0.664,0,0,0,40.222,29.183Z" transform="translate(-35 -29)"/>
</svg>
