<svg xmlns="http://www.w3.org/2000/svg" width="39.37" height="40" viewBox="0 0 39.37 40">
  <defs>
    <style>
      .cls-1 {
        fill: #0c4a6e;
        fill-rule: evenodd;
      }
    </style>
  </defs>
  <path id="Twitter" class="cls-1" d="M1163.67,1370a20,20,0,1,1-19.69,20A19.847,19.847,0,0,1,1163.67,1370Zm11.82,13.59a9.975,9.975,0,0,1-2.79.73,4.685,4.685,0,0,0,2.13-2.55,9.985,9.985,0,0,1-3.07,1.12,4.969,4.969,0,0,0-3.54-1.46,4.739,4.739,0,0,0-4.85,4.62,4.083,4.083,0,0,0,.13,1.05,13.965,13.965,0,0,1-9.99-4.83,4.45,4.45,0,0,0-.66,2.33,4.567,4.567,0,0,0,2.16,3.84,5.063,5.063,0,0,1-2.2-.58v0.06a4.668,4.668,0,0,0,3.89,4.52,4.882,4.882,0,0,1-1.28.17,5.5,5.5,0,0,1-.91-0.08,4.839,4.839,0,0,0,4.53,3.2,10.034,10.034,0,0,1-6.02,1.98,11.114,11.114,0,0,1-1.16-.07,14.256,14.256,0,0,0,7.43,2.08,13.361,13.361,0,0,0,13.79-13.14c0-.2,0-0.4-0.01-0.6A9.644,9.644,0,0,0,1175.49,1383.59Z" transform="translate(-1143.97 -1370)"/>
</svg>
